<mxfile host="app.diagrams.net" modified="2023-08-30T08:57:36.047Z" agent="Mozilla/5.0 (Macintosh; Intel Mac OS X 10_15_7) AppleWebKit/537.36 (KHTML, like Gecko) Chrome/116.0.0.0 Safari/537.36" etag="D4RWrHTONNMnHEO6LBap" version="21.6.9" type="github">
  <diagram name="Page-1" id="e7e014a7-5840-1c2e-5031-d8a46d1fe8dd">
    <mxGraphModel dx="1546" dy="739" grid="1" gridSize="10" guides="1" tooltips="1" connect="1" arrows="1" fold="1" page="1" pageScale="1" pageWidth="1169" pageHeight="826" background="none" math="0" shadow="0">
      <root>
        <mxCell id="0" />
        <mxCell id="1" parent="0" />
        <mxCell id="6" value="" style="edgeStyle=elbowEdgeStyle;elbow=horizontal;verticalAlign=bottom;endArrow=open;endSize=8;strokeColor=#FF0000;endFill=1;rounded=0" parent="1" target="7" edge="1">
          <mxGeometry x="264.5" y="168" as="geometry">
            <mxPoint x="325" y="208" as="targetPoint" />
            <mxPoint x="325" y="168" as="sourcePoint" />
          </mxGeometry>
        </mxCell>
        <mxCell id="7" value="API调用" style="" parent="1" vertex="1">
          <mxGeometry x="270" y="208" width="110" height="50" as="geometry" />
        </mxCell>
        <mxCell id="8" value="认证" style="" parent="1" vertex="1">
          <mxGeometry x="270" y="310" width="110" height="50" as="geometry" />
        </mxCell>
        <mxCell id="9" value="" style="endArrow=open;strokeColor=#FF0000;endFill=1;rounded=0" parent="1" source="7" target="8" edge="1">
          <mxGeometry relative="1" as="geometry" />
        </mxCell>
        <mxCell id="10" value="中间件处理" style="" parent="1" vertex="1">
          <mxGeometry x="270" y="400" width="110" height="50" as="geometry" />
        </mxCell>
        <mxCell id="11" value="" style="endArrow=open;strokeColor=#FF0000;endFill=1;rounded=0" parent="1" source="8" target="10" edge="1">
          <mxGeometry relative="1" as="geometry" />
        </mxCell>
        <mxCell id="l-BIrwG7eGelGZkbzb5W-41" value="" style="ellipse;shape=startState;fillColor=#000000;strokeColor=#ff0000;" vertex="1" parent="1">
          <mxGeometry x="310" y="140" width="30" height="30" as="geometry" />
        </mxCell>
        <mxCell id="l-BIrwG7eGelGZkbzb5W-42" value="路由匹配" style="" vertex="1" parent="1">
          <mxGeometry x="270" y="490" width="110" height="50" as="geometry" />
        </mxCell>
        <mxCell id="l-BIrwG7eGelGZkbzb5W-43" value="解析参数" style="" vertex="1" parent="1">
          <mxGeometry x="440" y="490" width="110" height="50" as="geometry" />
        </mxCell>
        <mxCell id="l-BIrwG7eGelGZkbzb5W-44" value="参数校验" style="" vertex="1" parent="1">
          <mxGeometry x="440" y="400" width="110" height="50" as="geometry" />
        </mxCell>
        <mxCell id="l-BIrwG7eGelGZkbzb5W-45" value="调用逻辑处理函数" style="" vertex="1" parent="1">
          <mxGeometry x="440" y="310" width="110" height="50" as="geometry" />
        </mxCell>
        <mxCell id="l-BIrwG7eGelGZkbzb5W-46" value="业务处理" style="" vertex="1" parent="1">
          <mxGeometry x="440" y="210" width="110" height="50" as="geometry" />
        </mxCell>
        <mxCell id="l-BIrwG7eGelGZkbzb5W-47" value="" style="ellipse;html=1;shape=endState;fillColor=#000000;strokeColor=#ff0000;" vertex="1" parent="1">
          <mxGeometry x="480" y="140" width="30" height="30" as="geometry" />
        </mxCell>
        <mxCell id="l-BIrwG7eGelGZkbzb5W-48" value="" style="endArrow=open;strokeColor=#FF0000;endFill=1;rounded=0;entryX=0.5;entryY=0;entryDx=0;entryDy=0;exitX=0.5;exitY=1;exitDx=0;exitDy=0;" edge="1" parent="1" source="10" target="l-BIrwG7eGelGZkbzb5W-42">
          <mxGeometry relative="1" as="geometry">
            <mxPoint x="335" y="370" as="sourcePoint" />
            <mxPoint x="335" y="410" as="targetPoint" />
          </mxGeometry>
        </mxCell>
        <mxCell id="l-BIrwG7eGelGZkbzb5W-49" value="" style="endArrow=open;strokeColor=#FF0000;endFill=1;rounded=0;exitX=1;exitY=0.5;exitDx=0;exitDy=0;entryX=0;entryY=0.5;entryDx=0;entryDy=0;" edge="1" parent="1" source="l-BIrwG7eGelGZkbzb5W-42" target="l-BIrwG7eGelGZkbzb5W-43">
          <mxGeometry relative="1" as="geometry">
            <mxPoint x="345" y="380" as="sourcePoint" />
            <mxPoint x="345" y="420" as="targetPoint" />
          </mxGeometry>
        </mxCell>
        <mxCell id="l-BIrwG7eGelGZkbzb5W-50" value="" style="endArrow=open;strokeColor=#FF0000;endFill=1;rounded=0;exitX=0.5;exitY=0;exitDx=0;exitDy=0;entryX=0.5;entryY=1;entryDx=0;entryDy=0;" edge="1" parent="1" source="l-BIrwG7eGelGZkbzb5W-43" target="l-BIrwG7eGelGZkbzb5W-44">
          <mxGeometry relative="1" as="geometry">
            <mxPoint x="355" y="390" as="sourcePoint" />
            <mxPoint x="355" y="430" as="targetPoint" />
          </mxGeometry>
        </mxCell>
        <mxCell id="l-BIrwG7eGelGZkbzb5W-51" value="" style="endArrow=open;strokeColor=#FF0000;endFill=1;rounded=0;exitX=0.5;exitY=0;exitDx=0;exitDy=0;entryX=0.5;entryY=1;entryDx=0;entryDy=0;" edge="1" parent="1" source="l-BIrwG7eGelGZkbzb5W-44" target="l-BIrwG7eGelGZkbzb5W-45">
          <mxGeometry relative="1" as="geometry">
            <mxPoint x="365" y="400" as="sourcePoint" />
            <mxPoint x="365" y="440" as="targetPoint" />
          </mxGeometry>
        </mxCell>
        <mxCell id="l-BIrwG7eGelGZkbzb5W-52" value="" style="endArrow=open;strokeColor=#FF0000;endFill=1;rounded=0;exitX=0.5;exitY=0;exitDx=0;exitDy=0;entryX=0.5;entryY=1;entryDx=0;entryDy=0;" edge="1" parent="1" source="l-BIrwG7eGelGZkbzb5W-45" target="l-BIrwG7eGelGZkbzb5W-46">
          <mxGeometry relative="1" as="geometry">
            <mxPoint x="375" y="410" as="sourcePoint" />
            <mxPoint x="375" y="450" as="targetPoint" />
          </mxGeometry>
        </mxCell>
        <mxCell id="l-BIrwG7eGelGZkbzb5W-53" value="" style="endArrow=open;strokeColor=#FF0000;endFill=1;rounded=0;exitX=0.5;exitY=0;exitDx=0;exitDy=0;entryX=0.5;entryY=1;entryDx=0;entryDy=0;" edge="1" parent="1" source="l-BIrwG7eGelGZkbzb5W-46" target="l-BIrwG7eGelGZkbzb5W-47">
          <mxGeometry relative="1" as="geometry">
            <mxPoint x="385" y="420" as="sourcePoint" />
            <mxPoint x="385" y="460" as="targetPoint" />
          </mxGeometry>
        </mxCell>
      </root>
    </mxGraphModel>
  </diagram>
</mxfile>
